<svg width="57" height="72" viewBox="0 0 57 72" fill="none" xmlns="http://www.w3.org/2000/svg">
<mask id="path-1-inside-1_588_693" fill="white">
<path d="M13.5256 64.3749V68.1874C13.5256 70.3191 11.4969 72 9.03322 72C6.56956 72 4.54085 70.3191 4.54085 68.1874V64.3749H0V51.912C0 49.1651 2.1738 46.9106 5.12024 46.2137L10.3856 35.5957C11.1585 34.038 12.9459 32.9309 15.0712 32.9309H41.9773C44.1026 32.9309 45.8899 34.0377 46.6629 35.5957L51.8798 46.2137C54.8265 46.9106 57 49.1654 57 51.912V64.3749H52.411V68.1874C52.411 70.3191 50.3823 72 47.9186 72C45.4068 72 43.4263 70.3191 43.4263 68.1874V64.3749H13.5256ZM9.32275 57.5286C11.8346 57.5286 13.8636 55.8069 13.8636 53.6749C13.8636 51.5431 11.8349 49.8211 9.32275 49.8211C6.8106 49.8211 4.7819 51.5429 4.7819 53.6749C4.78224 55.8066 6.81094 57.5286 9.32275 57.5286ZM51.9282 53.6749C51.9282 51.5431 49.8995 49.8211 47.3874 49.8211C44.8756 49.8211 42.8465 51.5429 42.8465 53.6749C42.8465 55.8066 44.8752 57.5286 47.3874 57.5286C49.8995 57.5286 51.9282 55.8066 51.9282 53.6749ZM47.3877 46.0086L42.8954 36.8254C42.7021 36.3746 42.1709 36.0466 41.5427 36.0466H15.4577C14.878 36.0466 14.3467 36.3746 14.1535 36.8254L9.66109 46.0086H47.3877ZM18.7627 20.432C18.1671 20.8083 18.0533 21.4857 18.4839 21.9803C18.902 22.4857 19.7507 22.5823 20.321 22.2274C20.9038 21.862 21.0432 21.1629 20.6123 20.6683C20.1689 20.174 19.3582 20.0666 18.7627 20.432ZM20.4604 17.1526C19.9029 17.5074 19.8016 18.1526 20.1945 18.6257C20.5873 19.0989 21.3852 19.1957 21.9303 18.8514C22.4878 18.5074 22.6019 17.8514 22.1962 17.3783C21.7906 16.9051 21.0179 16.8086 20.4604 17.1526ZM17.2171 23.6577C16.6595 24.0126 16.5582 24.6577 16.9511 25.1309C17.344 25.604 18.1422 25.7009 18.6869 25.3566C19.2444 25.0126 19.3585 24.3566 18.9529 23.8834C18.5347 23.4106 17.7618 23.3137 17.2171 23.6577ZM23.8051 14.0989C23.4122 13.6471 22.6901 13.5611 22.1706 13.8837C21.6384 14.2171 21.5371 14.8191 21.9171 15.2706C22.2972 15.7223 23.0446 15.8083 23.5516 15.4857C24.0711 15.1526 24.198 14.5291 23.8051 14.0989ZM24.5653 20.5503C24.0206 20.9589 23.995 21.6471 24.464 22.0986C24.9582 22.5609 25.7817 22.5931 26.3011 22.1954C26.8334 21.7869 26.8839 21.088 26.4024 20.6363C25.9335 20.174 25.11 20.1417 24.5653 20.5503ZM23.9698 23.7546C23.425 24.1631 23.3995 24.8514 23.8684 25.3029C24.337 25.7651 25.1733 25.8083 25.7056 25.3997C26.2378 24.9911 26.2883 24.2923 25.8069 23.8406C25.3383 23.3783 24.5145 23.346 23.9698 23.7546ZM23.4122 27.3243C22.8675 27.7329 22.8295 28.4209 23.3109 28.8726C23.7923 29.3349 24.6158 29.378 25.1481 28.9694C25.6803 28.5609 25.7308 27.862 25.2494 27.4103C24.768 26.948 23.9445 26.9157 23.4122 27.3243ZM25.1861 17.2494C24.6666 17.6366 24.6414 18.2923 25.0848 18.7226C25.5409 19.1634 26.3392 19.1957 26.833 18.8086C27.3397 18.4214 27.3777 17.7657 26.9344 17.3354C26.4785 16.9051 25.7056 16.8731 25.1861 17.2494ZM25.8197 13.9591C25.3383 14.3249 25.3002 14.9483 25.7184 15.3569C26.1365 15.7654 26.8839 15.7977 27.3653 15.432C27.8467 15.0663 27.8848 14.4429 27.4538 14.0343C27.0232 13.6366 26.2883 13.6043 25.8197 13.9591ZM31.7489 18.7977C32.2303 18.346 32.1923 17.6689 31.6856 17.2709C31.1662 16.8729 30.3679 16.8946 29.8865 17.3354C29.4179 17.7654 29.4556 18.4429 29.9751 18.8514C30.4945 19.26 31.2928 19.2277 31.7489 18.7977ZM32.3445 22.0771C32.8259 21.6254 32.7879 20.9483 32.2812 20.5611C31.7617 20.1417 30.9635 20.1631 30.4821 20.6149C30.0134 21.0449 30.0515 21.7223 30.571 22.1309C31.0901 22.5394 31.8883 22.5071 32.3445 22.0771ZM30.8622 23.8406C30.3935 24.2706 30.4312 24.948 30.9507 25.3566C31.4702 25.7543 32.2684 25.7329 32.7246 25.3029C33.206 24.8511 33.1679 24.174 32.6613 23.776C32.1418 23.3783 31.3436 23.3997 30.8622 23.8406ZM31.179 15.4C31.6223 14.9914 31.5843 14.3571 31.1157 13.9914C30.6342 13.6151 29.8869 13.6366 29.4431 14.0451C28.9998 14.4429 29.0378 15.088 29.5192 15.4537C29.9879 15.83 30.7352 15.7977 31.179 15.4ZM35.0175 15.486C35.3976 15.056 35.2963 14.4323 34.7896 14.0989C34.283 13.7763 33.548 13.8623 33.1551 14.2923C32.7751 14.7117 32.8764 15.346 33.3959 15.6686C33.9029 15.9914 34.6375 15.916 35.0175 15.486ZM36.7281 18.9806C37.1334 18.5289 37.0196 17.8731 36.4874 17.5291C35.9551 17.1851 35.1825 17.282 34.7768 17.7334C34.3715 18.1851 34.4853 18.8409 35.0175 19.1849C35.5626 19.5289 36.3228 19.4537 36.7281 18.9806ZM38.4383 22.4966C38.8693 22.0234 38.7551 21.3354 38.1848 20.9697C37.6273 20.604 36.8291 20.7117 36.3985 21.1846C35.9679 21.6577 36.0945 22.3457 36.652 22.7006C37.2095 23.0663 38.0077 22.9803 38.4383 22.4966ZM39.7688 24.2814C39.2113 23.9157 38.4131 24.0234 37.9825 24.4966C37.5519 24.9697 37.6785 25.6577 38.236 26.0126C38.806 26.3674 39.6042 26.2814 40.0351 25.7974C40.4529 25.3351 40.3388 24.6363 39.7688 24.2814ZM8.07408 0V3.75171H26.1247V7.19057L21.3357 9.37914V11.8803H35.7026V9.37914L30.9137 7.19057V3.75171H48.9643V0H8.07408Z"/>
</mask>
<path d="M13.5256 64.3749V68.1874C13.5256 70.3191 11.4969 72 9.03322 72C6.56956 72 4.54085 70.3191 4.54085 68.1874V64.3749H0V51.912C0 49.1651 2.1738 46.9106 5.12024 46.2137L10.3856 35.5957C11.1585 34.038 12.9459 32.9309 15.0712 32.9309H41.9773C44.1026 32.9309 45.8899 34.0377 46.6629 35.5957L51.8798 46.2137C54.8265 46.9106 57 49.1654 57 51.912V64.3749H52.411V68.1874C52.411 70.3191 50.3823 72 47.9186 72C45.4068 72 43.4263 70.3191 43.4263 68.1874V64.3749H13.5256ZM9.32275 57.5286C11.8346 57.5286 13.8636 55.8069 13.8636 53.6749C13.8636 51.5431 11.8349 49.8211 9.32275 49.8211C6.8106 49.8211 4.7819 51.5429 4.7819 53.6749C4.78224 55.8066 6.81094 57.5286 9.32275 57.5286ZM51.9282 53.6749C51.9282 51.5431 49.8995 49.8211 47.3874 49.8211C44.8756 49.8211 42.8465 51.5429 42.8465 53.6749C42.8465 55.8066 44.8752 57.5286 47.3874 57.5286C49.8995 57.5286 51.9282 55.8066 51.9282 53.6749ZM47.3877 46.0086L42.8954 36.8254C42.7021 36.3746 42.1709 36.0466 41.5427 36.0466H15.4577C14.878 36.0466 14.3467 36.3746 14.1535 36.8254L9.66109 46.0086H47.3877ZM18.7627 20.432C18.1671 20.8083 18.0533 21.4857 18.4839 21.9803C18.902 22.4857 19.7507 22.5823 20.321 22.2274C20.9038 21.862 21.0432 21.1629 20.6123 20.6683C20.1689 20.174 19.3582 20.0666 18.7627 20.432ZM20.4604 17.1526C19.9029 17.5074 19.8016 18.1526 20.1945 18.6257C20.5873 19.0989 21.3852 19.1957 21.9303 18.8514C22.4878 18.5074 22.6019 17.8514 22.1962 17.3783C21.7906 16.9051 21.0179 16.8086 20.4604 17.1526ZM17.2171 23.6577C16.6595 24.0126 16.5582 24.6577 16.9511 25.1309C17.344 25.604 18.1422 25.7009 18.6869 25.3566C19.2444 25.0126 19.3585 24.3566 18.9529 23.8834C18.5347 23.4106 17.7618 23.3137 17.2171 23.6577ZM23.8051 14.0989C23.4122 13.6471 22.6901 13.5611 22.1706 13.8837C21.6384 14.2171 21.5371 14.8191 21.9171 15.2706C22.2972 15.7223 23.0446 15.8083 23.5516 15.4857C24.0711 15.1526 24.198 14.5291 23.8051 14.0989ZM24.5653 20.5503C24.0206 20.9589 23.995 21.6471 24.464 22.0986C24.9582 22.5609 25.7817 22.5931 26.3011 22.1954C26.8334 21.7869 26.8839 21.088 26.4024 20.6363C25.9335 20.174 25.11 20.1417 24.5653 20.5503ZM23.9698 23.7546C23.425 24.1631 23.3995 24.8514 23.8684 25.3029C24.337 25.7651 25.1733 25.8083 25.7056 25.3997C26.2378 24.9911 26.2883 24.2923 25.8069 23.8406C25.3383 23.3783 24.5145 23.346 23.9698 23.7546ZM23.4122 27.3243C22.8675 27.7329 22.8295 28.4209 23.3109 28.8726C23.7923 29.3349 24.6158 29.378 25.1481 28.9694C25.6803 28.5609 25.7308 27.862 25.2494 27.4103C24.768 26.948 23.9445 26.9157 23.4122 27.3243ZM25.1861 17.2494C24.6666 17.6366 24.6414 18.2923 25.0848 18.7226C25.5409 19.1634 26.3392 19.1957 26.833 18.8086C27.3397 18.4214 27.3777 17.7657 26.9344 17.3354C26.4785 16.9051 25.7056 16.8731 25.1861 17.2494ZM25.8197 13.9591C25.3383 14.3249 25.3002 14.9483 25.7184 15.3569C26.1365 15.7654 26.8839 15.7977 27.3653 15.432C27.8467 15.0663 27.8848 14.4429 27.4538 14.0343C27.0232 13.6366 26.2883 13.6043 25.8197 13.9591ZM31.7489 18.7977C32.2303 18.346 32.1923 17.6689 31.6856 17.2709C31.1662 16.8729 30.3679 16.8946 29.8865 17.3354C29.4179 17.7654 29.4556 18.4429 29.9751 18.8514C30.4945 19.26 31.2928 19.2277 31.7489 18.7977ZM32.3445 22.0771C32.8259 21.6254 32.7879 20.9483 32.2812 20.5611C31.7617 20.1417 30.9635 20.1631 30.4821 20.6149C30.0134 21.0449 30.0515 21.7223 30.571 22.1309C31.0901 22.5394 31.8883 22.5071 32.3445 22.0771ZM30.8622 23.8406C30.3935 24.2706 30.4312 24.948 30.9507 25.3566C31.4702 25.7543 32.2684 25.7329 32.7246 25.3029C33.206 24.8511 33.1679 24.174 32.6613 23.776C32.1418 23.3783 31.3436 23.3997 30.8622 23.8406ZM31.179 15.4C31.6223 14.9914 31.5843 14.3571 31.1157 13.9914C30.6342 13.6151 29.8869 13.6366 29.4431 14.0451C28.9998 14.4429 29.0378 15.088 29.5192 15.4537C29.9879 15.83 30.7352 15.7977 31.179 15.4ZM35.0175 15.486C35.3976 15.056 35.2963 14.4323 34.7896 14.0989C34.283 13.7763 33.548 13.8623 33.1551 14.2923C32.7751 14.7117 32.8764 15.346 33.3959 15.6686C33.9029 15.9914 34.6375 15.916 35.0175 15.486ZM36.7281 18.9806C37.1334 18.5289 37.0196 17.8731 36.4874 17.5291C35.9551 17.1851 35.1825 17.282 34.7768 17.7334C34.3715 18.1851 34.4853 18.8409 35.0175 19.1849C35.5626 19.5289 36.3228 19.4537 36.7281 18.9806ZM38.4383 22.4966C38.8693 22.0234 38.7551 21.3354 38.1848 20.9697C37.6273 20.604 36.8291 20.7117 36.3985 21.1846C35.9679 21.6577 36.0945 22.3457 36.652 22.7006C37.2095 23.0663 38.0077 22.9803 38.4383 22.4966ZM39.7688 24.2814C39.2113 23.9157 38.4131 24.0234 37.9825 24.4966C37.5519 24.9697 37.6785 25.6577 38.236 26.0126C38.806 26.3674 39.6042 26.2814 40.0351 25.7974C40.4529 25.3351 40.3388 24.6363 39.7688 24.2814ZM8.07408 0V3.75171H26.1247V7.19057L21.3357 9.37914V11.8803H35.7026V9.37914L30.9137 7.19057V3.75171H48.9643V0H8.07408Z" stroke="#FF914D" stroke-width="4" mask="url(#path-1-inside-1_588_693)"/>
</svg>
